<svg xmlns="http://www.w3.org/2000/svg" width="624.2449951171875" height="645.1627197265625" viewBox="-177.79827880859375 -177.72293090820312 624.2449951171875 645.1627197265625"><title>Neo4j Graph Visualization</title><desc>Created using Neo4j (http://www.neo4j.com/)</desc><g class="layer relationships"><g class="relationship" transform="translate(-77.67622382363095 333.81399559958084) rotate(368.01067326321635)"><path class="outline" fill="#A5ABB6" stroke="none" d="M 25 0.5 L 28.251998190912346 0.5 L 28.251998190912346 -0.5 L 25 -0.5 Z M 73.81449819091235 0.5 L 77.06649638182469 0.5 L 77.06649638182469 3.5 L 84.06649638182469 0 L 77.06649638182469 -3.5 L 77.06649638182469 -0.5 L 73.81449819091235 -0.5 Z"/><text text-anchor="middle" pointer-events="none" font-size="8px" fill="#000000" x="51.033248190912346" y="3" font-family="sans-serif">ACTED_IN</text></g><g class="relationship" transform="translate(89.39323397193986 438.43983384295217) rotate(236.5548135566907)"><path class="outline" fill="#A5ABB6" stroke="none" d="M 25 0.5 L 26.64118872835548 0.5 L 26.64118872835548 -0.5 L 25 -0.5 Z M 73.53181372835547 0.5 L 75.17300245671096 0.5 L 75.17300245671096 3.5 L 82.17300245671096 0 L 75.17300245671096 -3.5 L 75.17300245671096 -0.5 L 73.53181372835547 -0.5 Z"/><text text-anchor="middle" pointer-events="none" font-size="8px" fill="#000000" x="50.08650122835548" y="3" transform="rotate(180 50.08650122835548 0)" font-family="sans-serif">DIRECTED</text></g><g class="relationship" transform="translate(145.93563865687207 339.03253034025664) rotate(535.0658257316945)"><path class="outline" fill="#A5ABB6" stroke="none" d="M 25 0.5 L 36.63310436968756 0.5 L 36.63310436968756 -0.5 L 25 -0.5 Z M 72.40654186968756 0.5 L 84.03964623937512 0.5 L 84.03964623937512 3.5 L 91.03964623937512 0 L 84.03964623937512 -3.5 L 84.03964623937512 -0.5 L 72.40654186968756 -0.5 Z"/><text text-anchor="middle" pointer-events="none" font-size="8px" fill="#000000" x="54.51982311968756" y="3" transform="rotate(180 54.51982311968756 0)" font-family="sans-serif">WROTE</text></g><g class="relationship" transform="translate(70.22568721810418 248.79293470077303) rotate(471.7084733235418)"><path class="outline" fill="#A5ABB6" stroke="none" d="M 25 0.5 L 32.54864276471575 0.5 L 32.54864276471575 -0.5 L 25 -0.5 Z M 68.32208026471575 0.5 L 75.8707230294315 0.5 L 75.8707230294315 3.5 L 82.8707230294315 0 L 75.8707230294315 -3.5 L 75.8707230294315 -0.5 L 68.32208026471575 -0.5 Z"/><text text-anchor="middle" pointer-events="none" font-size="8px" fill="#000000" x="50.43536151471575" y="3" transform="rotate(180 50.43536151471575 0)" font-family="sans-serif">WROTE</text></g><g class="relationship" transform="translate(417.4466784237592 115.08840475113728) rotate(223.0023555452476)"><path class="outline" fill="#A5ABB6" stroke="none" d="M 25 0.5 L 27.10932614102468 0.5 L 27.10932614102468 -0.5 L 25 -0.5 Z M 73.99995114102468 0.5 L 76.10927728204936 0.5 L 76.10927728204936 3.5 L 83.10927728204936 0 L 76.10927728204936 -3.5 L 76.10927728204936 -0.5 L 73.99995114102468 -0.5 Z"/><text text-anchor="middle" pointer-events="none" font-size="8px" fill="#000000" x="50.55463864102468" y="3" transform="rotate(180 50.55463864102468 0)" font-family="sans-serif">DIRECTED</text></g><g class="relationship" transform="translate(366.6866586710916 -65.09430301667668) rotate(464.8895198739643)"><path class="outline" fill="#A5ABB6" stroke="none" d="M 25 0.5 L 33.687041328685396 0.5 L 33.687041328685396 -0.5 L 25 -0.5 Z M 69.4604788286854 0.5 L 78.14752015737079 0.5 L 78.14752015737079 3.5 L 85.14752015737079 0 L 78.14752015737079 -3.5 L 78.14752015737079 -0.5 L 69.4604788286854 -0.5 Z"/><text text-anchor="middle" pointer-events="none" font-size="8px" fill="#000000" x="51.573760078685396" y="3" transform="rotate(180 51.573760078685396 0)" font-family="sans-serif">WROTE</text></g><g class="relationship" transform="translate(299.92548803109526 144.74723689014183) rotate(290.403310636142)"><path class="outline" fill="#A5ABB6" stroke="none" d="M 25 0.5 L 33.769923334208954 0.5 L 33.769923334208954 -0.5 L 25 -0.5 Z M 69.54336083420895 0.5 L 78.31328416841791 0.5 L 78.31328416841791 3.5 L 85.31328416841791 0 L 78.31328416841791 -3.5 L 78.31328416841791 -0.5 L 69.54336083420895 -0.5 Z"/><text text-anchor="middle" pointer-events="none" font-size="8px" fill="#000000" x="51.656642084208954" y="3" font-family="sans-serif">WROTE</text></g><g class="relationship" transform="translate(256.9936488294198 -30.677662260745528) rotate(401.5097638231928)"><path class="outline" fill="#A5ABB6" stroke="none" d="M 25 0.5 L 28.062559933358756 0.5 L 28.062559933358756 -0.5 L 25 -0.5 Z M 73.62505993335876 0.5 L 76.68761986671751 0.5 L 76.68761986671751 3.5 L 83.68761986671751 0 L 76.68761986671751 -3.5 L 76.68761986671751 -0.5 L 73.62505993335876 -0.5 Z"/><text text-anchor="middle" pointer-events="none" font-size="8px" fill="#000000" x="50.843809933358756" y="3" font-family="sans-serif">ACTED_IN</text></g><g class="relationship" transform="translate(-42.19476639836847 -148.7229323707736) rotate(451.26007839567046)"><path class="outline" fill="#A5ABB6" stroke="none" d="M 25 0.5 L 35.810889157108264 0.5 L 35.810889157108264 -0.5 L 25 -0.5 Z M 71.58432665710826 0.5 L 82.39521581421653 0.5 L 82.39521581421653 3.5 L 89.39521581421653 0 L 82.39521581421653 -3.5 L 82.39521581421653 -0.5 L 71.58432665710826 -0.5 Z"/><text text-anchor="middle" pointer-events="none" font-size="8px" fill="#000000" x="53.697607907108264" y="3" transform="rotate(180 53.697607907108264 0)" font-family="sans-serif">WROTE</text></g><g class="relationship" transform="translate(51.519167352817476 -100.39908506868349) rotate(505.53764398044365)"><path class="outline" fill="#A5ABB6" stroke="none" d="M 25 0.5 L 36.96973124169927 0.5 L 36.96973124169927 -0.5 L 25 -0.5 Z M 72.74316874169926 0.5 L 84.71289998339854 0.5 L 84.71289998339854 3.5 L 91.71289998339854 0 L 84.71289998339854 -3.5 L 84.71289998339854 -0.5 L 72.74316874169926 -0.5 Z"/><text text-anchor="middle" pointer-events="none" font-size="8px" fill="#000000" x="54.85644999169927" y="3" transform="rotate(180 54.85644999169927 0)" font-family="sans-serif">WROTE</text></g><g class="relationship" transform="translate(-148.79827436713148 -75.45463616616415) rotate(381.54666114392415)"><path class="outline" fill="#A5ABB6" stroke="none" d="M 25 0.5 L 29.008762299214276 0.5 L 29.008762299214276 -0.5 L 25 -0.5 Z M 75.89938729921428 0.5 L 79.90814959842855 0.5 L 79.90814959842855 3.5 L 86.90814959842855 0 L 79.90814959842855 -3.5 L 79.90814959842855 -0.5 L 75.89938729921428 -0.5 Z"/><text text-anchor="middle" pointer-events="none" font-size="8px" fill="#000000" x="52.454074799214276" y="3" font-family="sans-serif">DIRECTED</text></g><g class="relationship" transform="translate(-139.91418863419506 35.19684949451714) rotate(323.849570617105)"><path class="outline" fill="#A5ABB6" stroke="none" d="M 25 0.5 L 32.67058117184171 0.5 L 32.67058117184171 -0.5 L 25 -0.5 Z M 78.23308117184172 0.5 L 85.90366234368342 0.5 L 85.90366234368342 3.5 L 92.90366234368342 0 L 85.90366234368342 -3.5 L 85.90366234368342 -0.5 L 78.23308117184172 -0.5 Z"/><text text-anchor="middle" pointer-events="none" font-size="8px" fill="#000000" x="55.45183117184171" y="3" font-family="sans-serif">ACTED_IN</text></g><g class="relationship" transform="translate(54.24812264627349 18.943987244172057) rotate(208.307042820883)"><path class="outline" fill="#A5ABB6" stroke="none" d="M 25 0.5 L 29.918421343860906 0.5 L 29.918421343860906 -0.5 L 25 -0.5 Z M 75.4809213438609 0.5 L 80.39934268772181 0.5 L 80.39934268772181 3.5 L 87.39934268772181 0 L 80.39934268772181 -3.5 L 80.39934268772181 -0.5 L 75.4809213438609 -0.5 Z"/><text text-anchor="middle" pointer-events="none" font-size="8px" fill="#000000" x="52.699671343860906" y="3" transform="rotate(180 52.699671343860906 0)" font-family="sans-serif">ACTED_IN</text></g><g class="relationship" transform="translate(-50.90044676740909 80.30158775143926) rotate(273.09025658587984)"><path class="outline" fill="#A5ABB6" stroke="none" d="M 25 0.5 L 31.130719489491618 0.5 L 31.130719489491618 -0.5 L 25 -0.5 Z M 76.69321948949161 0.5 L 82.82393897898324 0.5 L 82.82393897898324 3.5 L 89.82393897898324 0 L 82.82393897898324 -3.5 L 82.82393897898324 -0.5 L 76.69321948949161 -0.5 Z"/><text text-anchor="middle" pointer-events="none" font-size="8px" fill="#000000" x="53.91196948949162" y="3" font-family="sans-serif">ACTED_IN</text></g></g><g class="layer nodes"><g class="node" transform="translate(30.32601541749184,349.0132374198117)"><circle class="outline" cx="0" cy="0" r="25" fill="#57C7E3" stroke="#23b3d7" stroke-width="2px"/><text text-anchor="middle" pointer-events="none" font-family="sans-serif" dy="1.5625" font-size="25" fill="#2A2C34"/><text text-anchor="middle" pointer-events="none" font-family="sans-serif" dy="1.5625" font-size="25" fill="#2A2C34"/><text text-anchor="middle" pointer-events="none" font-family="sans-serif" dy="1.5625" font-size="25" fill="#2A2C34"/><text text-anchor="middle" pointer-events="none" x="0" y="-5" font-size="10px" fill="#2A2C34" font-family="sans-serif"> Captain</text><text text-anchor="middle" pointer-events="none" x="0" y="5" font-size="10px" fill="#2A2C34" font-family="sans-serif"> America:</text><text text-anchor="middle" pointer-events="none" x="0" y="15" font-size="10px" fill="#2A2C34" font-family="sans-serif"> The Fi…</text></g><g class="node" transform="translate(-77.67622382363095,333.81399559958084)"><circle class="outline" cx="0" cy="0" r="25" fill="#F79767" stroke="#f36924" stroke-width="2px"/><text text-anchor="middle" pointer-events="none" font-family="sans-serif" dy="1.5625" font-size="25" fill="#FFFFFF"/><text text-anchor="middle" pointer-events="none" font-family="sans-serif" dy="1.5625" font-size="25" fill="#FFFFFF"/><text text-anchor="middle" pointer-events="none" x="0" y="0" font-size="10px" fill="#FFFFFF" font-family="sans-serif"> Hugo</text><text text-anchor="middle" pointer-events="none" x="0" y="10" font-size="10px" fill="#FFFFFF" font-family="sans-serif"> Weaving</text></g><g class="node" transform="translate(89.39323397193986,438.43983384295217)"><circle class="outline" cx="0" cy="0" r="25" fill="#F79767" stroke="#f36924" stroke-width="2px"/><text text-anchor="middle" pointer-events="none" font-family="sans-serif" dy="1.5625" font-size="25" fill="#FFFFFF"/><text text-anchor="middle" pointer-events="none" font-family="sans-serif" dy="1.5625" font-size="25" fill="#FFFFFF"/><text text-anchor="middle" pointer-events="none" x="0" y="0" font-size="10px" fill="#FFFFFF" font-family="sans-serif"> Joe</text><text text-anchor="middle" pointer-events="none" x="0" y="10" font-size="10px" fill="#FFFFFF" font-family="sans-serif"> Johnston</text></g><g class="node" transform="translate(145.93563865687207,339.03253034025664)"><circle class="outline" cx="0" cy="0" r="25" fill="#F79767" stroke="#f36924" stroke-width="2px"/><text text-anchor="middle" pointer-events="none" font-family="sans-serif" dy="1.5625" font-size="25" fill="#FFFFFF"/><text text-anchor="middle" pointer-events="none" font-family="sans-serif" dy="1.5625" font-size="25" fill="#FFFFFF"/><text text-anchor="middle" pointer-events="none" x="0" y="0" font-size="10px" fill="#FFFFFF" font-family="sans-serif"> Stephen</text><text text-anchor="middle" pointer-events="none" x="0" y="10" font-size="10px" fill="#FFFFFF" font-family="sans-serif"> McFeely</text></g><g class="node" transform="translate(70.22568721810418,248.79293470077303)"><circle class="outline" cx="0" cy="0" r="25" fill="#F79767" stroke="#f36924" stroke-width="2px"/><text text-anchor="middle" pointer-events="none" font-family="sans-serif" dy="1.5625" font-size="25" fill="#FFFFFF"/><text text-anchor="middle" pointer-events="none" x="0" y="5" font-size="10px" fill="#FFFFFF" font-family="sans-serif"> Christop…</text></g><g class="node" transform="translate(338.38358957461156,41.35480443161657)"><circle class="outline" cx="0" cy="0" r="25" fill="#57C7E3" stroke="#23b3d7" stroke-width="2px"/><text text-anchor="middle" pointer-events="none" font-family="sans-serif" dy="1.5625" font-size="25" fill="#2A2C34"/><text text-anchor="middle" pointer-events="none" font-family="sans-serif" dy="1.5625" font-size="25" fill="#2A2C34"/><text text-anchor="middle" pointer-events="none" font-family="sans-serif" dy="1.5625" font-size="25" fill="#2A2C34"/><text text-anchor="middle" pointer-events="none" x="0" y="-5" font-size="10px" fill="#2A2C34" font-family="sans-serif"> Captain</text><text text-anchor="middle" pointer-events="none" x="0" y="5" font-size="10px" fill="#2A2C34" font-family="sans-serif"> America:</text><text text-anchor="middle" pointer-events="none" x="0" y="15" font-size="10px" fill="#2A2C34" font-family="sans-serif"> The Fi…</text></g><g class="node" transform="translate(417.4466784237592,115.08840475113728)"><circle class="outline" cx="0" cy="0" r="25" fill="#F79767" stroke="#f36924" stroke-width="2px"/><text text-anchor="middle" pointer-events="none" font-family="sans-serif" dy="1.5625" font-size="25" fill="#FFFFFF"/><text text-anchor="middle" pointer-events="none" font-family="sans-serif" dy="1.5625" font-size="25" fill="#FFFFFF"/><text text-anchor="middle" pointer-events="none" x="0" y="0" font-size="10px" fill="#FFFFFF" font-family="sans-serif"> Joe</text><text text-anchor="middle" pointer-events="none" x="0" y="10" font-size="10px" fill="#FFFFFF" font-family="sans-serif"> Johnston</text></g><g class="node" transform="translate(366.6866586710916,-65.09430301667668)"><circle class="outline" cx="0" cy="0" r="25" fill="#F79767" stroke="#f36924" stroke-width="2px"/><text text-anchor="middle" pointer-events="none" font-family="sans-serif" dy="1.5625" font-size="25" fill="#FFFFFF"/><text text-anchor="middle" pointer-events="none" font-family="sans-serif" dy="1.5625" font-size="25" fill="#FFFFFF"/><text text-anchor="middle" pointer-events="none" x="0" y="0" font-size="10px" fill="#FFFFFF" font-family="sans-serif"> Stephen</text><text text-anchor="middle" pointer-events="none" x="0" y="10" font-size="10px" fill="#FFFFFF" font-family="sans-serif"> McFeely</text></g><g class="node" transform="translate(299.92548803109526,144.74723689014183)"><circle class="outline" cx="0" cy="0" r="25" fill="#F79767" stroke="#f36924" stroke-width="2px"/><text text-anchor="middle" pointer-events="none" font-family="sans-serif" dy="1.5625" font-size="25" fill="#FFFFFF"/><text text-anchor="middle" pointer-events="none" x="0" y="5" font-size="10px" fill="#FFFFFF" font-family="sans-serif"> Christop…</text></g><g class="node" transform="translate(256.9936488294198,-30.677662260745528)"><circle class="outline" cx="0" cy="0" r="25" fill="#F79767" stroke="#f36924" stroke-width="2px"/><text text-anchor="middle" pointer-events="none" font-family="sans-serif" dy="1.5625" font-size="25" fill="#FFFFFF"/><text text-anchor="middle" pointer-events="none" font-family="sans-serif" dy="1.5625" font-size="25" fill="#FFFFFF"/><text text-anchor="middle" pointer-events="none" x="0" y="0" font-size="10px" fill="#FFFFFF" font-family="sans-serif"> Hugo</text><text text-anchor="middle" pointer-events="none" x="0" y="10" font-size="10px" fill="#FFFFFF" font-family="sans-serif"> Weaving</text></g><g class="node" transform="translate(-44.71040230693358,-34.35538025411461)"><circle class="outline" cx="0" cy="0" r="25" fill="#57C7E3" stroke="#23b3d7" stroke-width="2px"/><text text-anchor="middle" pointer-events="none" font-family="sans-serif" dy="1.5625" font-size="25" fill="#2A2C34"/><text text-anchor="middle" pointer-events="none" font-family="sans-serif" dy="1.5625" font-size="25" fill="#2A2C34"/><text text-anchor="middle" pointer-events="none" font-family="sans-serif" dy="1.5625" font-size="25" fill="#2A2C34"/><text text-anchor="middle" pointer-events="none" x="0" y="-5" font-size="10px" fill="#2A2C34" font-family="sans-serif"> Captain</text><text text-anchor="middle" pointer-events="none" x="0" y="5" font-size="10px" fill="#2A2C34" font-family="sans-serif"> America:</text><text text-anchor="middle" pointer-events="none" x="0" y="15" font-size="10px" fill="#2A2C34" font-family="sans-serif"> The Fi…</text></g><g class="node" transform="translate(-42.19476639836847,-148.7229323707736)"><circle class="outline" cx="0" cy="0" r="25" fill="#F79767" stroke="#f36924" stroke-width="2px"/><text text-anchor="middle" pointer-events="none" font-family="sans-serif" dy="1.5625" font-size="25" fill="#FFFFFF"/><text text-anchor="middle" pointer-events="none" font-family="sans-serif" dy="1.5625" font-size="25" fill="#FFFFFF"/><text text-anchor="middle" pointer-events="none" x="0" y="0" font-size="10px" fill="#FFFFFF" font-family="sans-serif"> Stephen</text><text text-anchor="middle" pointer-events="none" x="0" y="10" font-size="10px" fill="#FFFFFF" font-family="sans-serif"> McFeely</text></g><g class="node" transform="translate(51.519167352817476,-100.39908506868349)"><circle class="outline" cx="0" cy="0" r="25" fill="#F79767" stroke="#f36924" stroke-width="2px"/><text text-anchor="middle" pointer-events="none" font-family="sans-serif" dy="1.5625" font-size="25" fill="#FFFFFF"/><text text-anchor="middle" pointer-events="none" x="0" y="5" font-size="10px" fill="#FFFFFF" font-family="sans-serif"> Christop…</text></g><g class="node" transform="translate(-148.79827436713148,-75.45463616616415)"><circle class="outline" cx="0" cy="0" r="25" fill="#F79767" stroke="#f36924" stroke-width="2px"/><text text-anchor="middle" pointer-events="none" font-family="sans-serif" dy="1.5625" font-size="25" fill="#FFFFFF"/><text text-anchor="middle" pointer-events="none" font-family="sans-serif" dy="1.5625" font-size="25" fill="#FFFFFF"/><text text-anchor="middle" pointer-events="none" x="0" y="0" font-size="10px" fill="#FFFFFF" font-family="sans-serif"> Joe</text><text text-anchor="middle" pointer-events="none" x="0" y="10" font-size="10px" fill="#FFFFFF" font-family="sans-serif"> Johnston</text></g><g class="node" transform="translate(-139.91418863419506,35.19684949451714)"><circle class="outline" cx="0" cy="0" r="25" fill="#F79767" stroke="#f36924" stroke-width="2px"/><text text-anchor="middle" pointer-events="none" font-family="sans-serif" dy="1.5625" font-size="25" fill="#FFFFFF"/><text text-anchor="middle" pointer-events="none" font-family="sans-serif" dy="1.5625" font-size="25" fill="#FFFFFF"/><text text-anchor="middle" pointer-events="none" x="0" y="0" font-size="10px" fill="#FFFFFF" font-family="sans-serif"> Chris</text><text text-anchor="middle" pointer-events="none" x="0" y="10" font-size="10px" fill="#FFFFFF" font-family="sans-serif"> Evan</text></g><g class="node" transform="translate(54.24812264627349,18.943987244172057)"><circle class="outline" cx="0" cy="0" r="25" fill="#F79767" stroke="#f36924" stroke-width="2px"/><text text-anchor="middle" pointer-events="none" font-family="sans-serif" dy="1.5625" font-size="25" fill="#FFFFFF"/><text text-anchor="middle" pointer-events="none" font-family="sans-serif" dy="1.5625" font-size="25" fill="#FFFFFF"/><text text-anchor="middle" pointer-events="none" x="0" y="0" font-size="10px" fill="#FFFFFF" font-family="sans-serif"> Haylel</text><text text-anchor="middle" pointer-events="none" x="0" y="10" font-size="10px" fill="#FFFFFF" font-family="sans-serif"> Atwell</text></g><g class="node" transform="translate(-50.90044676740909,80.30158775143926)"><circle class="outline" cx="0" cy="0" r="25" fill="#F79767" stroke="#f36924" stroke-width="2px"/><text text-anchor="middle" pointer-events="none" font-family="sans-serif" dy="1.5625" font-size="25" fill="#FFFFFF"/><text text-anchor="middle" pointer-events="none" x="0" y="5" font-size="10px" fill="#FFFFFF" font-family="sans-serif"> Sebastian</text></g></g></svg>